<svg width="16" height="16" viewBox="0 0 16 16" fill="none" xmlns="http://www.w3.org/2000/svg">
<path d="M1.75 15.5C1.41667 15.5 1.125 15.375 0.875 15.125C0.625 14.875 0.5 14.5833 0.5 14.25V1.75C0.5 1.41667 0.625 1.125 0.875 0.875C1.125 0.625 1.41667 0.5 1.75 0.5H14.25C14.5833 0.5 14.875 0.625 15.125 0.875C15.375 1.125 15.5 1.41667 15.5 1.75V14.25C15.5 14.5833 15.375 14.875 15.125 15.125C14.875 15.375 14.5833 15.5 14.25 15.5H1.75ZM1.75 1.75V14.25H14.25V1.75H12.0833V7C12.0833 7.13043 12.0312 7.22554 11.9271 7.28533C11.8229 7.34511 11.7153 7.34028 11.6042 7.27083L10.3542 6.52083C10.2431 6.45139 10.1389 6.41667 10.0417 6.41667C9.94444 6.41667 9.84028 6.45139 9.72917 6.52083L8.47917 7.27083C8.36806 7.34028 8.26042 7.34511 8.15625 7.28533C8.05208 7.22554 8 7.13043 8 7V1.75H1.75Z" fill="#32CDEF"/>
</svg>
