<svg width="19" height="18" viewBox="0 0 19 18" fill="none" xmlns="http://www.w3.org/2000/svg">
<path d="M12.5833 14.7083L11.7917 16.8125C11.7222 16.9652 11.6215 17.0902 11.4896 17.1875C11.3576 17.2847 11.2083 17.3333 11.0417 17.3333C10.7639 17.3333 10.5486 17.2187 10.3958 16.9895C10.2431 16.7604 10.2153 16.5139 10.3125 16.25L13.4792 7.85413C13.5486 7.70135 13.6458 7.57635 13.7708 7.47913C13.8958 7.3819 14.0417 7.33329 14.2083 7.33329H14.8333C15 7.33329 15.1458 7.37843 15.2708 7.46871C15.3958 7.55899 15.4931 7.68052 15.5625 7.83329L18.8125 16.2291C18.9236 16.5069 18.8958 16.7604 18.7292 16.9895C18.5625 17.2187 18.3403 17.3333 18.0625 17.3333C17.8681 17.3333 17.7014 17.2777 17.5625 17.1666C17.4236 17.0555 17.3194 16.9097 17.25 16.7291L16.5833 14.7083H12.5833ZM13.0417 13.25H16L14.5417 9.20829H14.5L13.0417 13.25ZM7.5 10.6666L3.89583 14.2708C3.74305 14.4236 3.55555 14.4965 3.33333 14.4895C3.11111 14.4826 2.92361 14.4027 2.77083 14.25C2.61805 14.0972 2.54167 13.9062 2.54167 13.677C2.54167 13.4479 2.61805 13.2569 2.77083 13.1041L6.4375 9.43746C5.90972 8.82635 5.44097 8.21177 5.03125 7.59371C4.62153 6.97565 4.26389 6.33329 3.95833 5.66663H5.77083C6.00694 6.12496 6.26736 6.55899 6.55208 6.96871C6.8368 7.37843 7.15972 7.79857 7.52083 8.22913C8.14583 7.57635 8.66667 6.89927 9.08333 6.19788C9.5 5.49649 9.85417 4.76385 10.1458 3.99996H1.66667C1.43055 3.99996 1.23264 3.9201 1.07292 3.76038C0.913193 3.60065 0.833332 3.40274 0.833332 3.16663C0.833332 2.93052 0.913193 2.7326 1.07292 2.57288C1.23264 2.41315 1.43055 2.33329 1.66667 2.33329H6.66667V1.49996C6.66667 1.26385 6.74653 1.06593 6.90625 0.906209C7.06597 0.746487 7.26389 0.666626 7.5 0.666626C7.73611 0.666626 7.93403 0.746487 8.09375 0.906209C8.25347 1.06593 8.33333 1.26385 8.33333 1.49996V2.33329H13.3333C13.5694 2.33329 13.7674 2.41315 13.9271 2.57288C14.0868 2.7326 14.1667 2.93052 14.1667 3.16663C14.1667 3.40274 14.0868 3.60065 13.9271 3.76038C13.7674 3.9201 13.5694 3.99996 13.3333 3.99996H11.8125C11.5069 4.95829 11.1007 5.89927 10.5937 6.82288C10.0868 7.74649 9.46528 8.62496 8.72917 9.45829L10.7708 11.5208L10.1458 13.2083L7.5 10.6666Z" fill="#32CDEF"/>
</svg>
