<svg width="289" height="38" viewBox="0 0 289 38" fill="none" xmlns="http://www.w3.org/2000/svg">
<path d="M23.64 37L21.912 29.848H12.216L10.536 37H2.37598L12.408 3.736H21.96L31.992 37H23.64ZM13.56 24.136H20.568L17.064 9.448L13.56 24.136Z" fill="#141414"/>
<path d="M41.0565 37.816C38.8485 37.816 37.1205 37.192 35.8725 35.944C34.6565 34.664 34.0485 32.856 34.0485 30.52V1.38399L41.6325 0.567993V30.232C41.6325 31.288 42.0645 31.816 42.9285 31.816C43.3765 31.816 43.7925 31.736 44.1765 31.576L45.6645 36.952C44.2885 37.528 42.7525 37.816 41.0565 37.816Z" fill="#141414"/>
<path d="M70.5281 23.752C70.5281 24.808 70.4801 25.72 70.3841 26.488H54.5921C54.8481 28.632 55.4561 30.136 56.4161 31C57.3761 31.864 58.7041 32.296 60.4001 32.296C61.4241 32.296 62.4161 32.12 63.3761 31.768C64.3361 31.384 65.3761 30.808 66.4961 30.04L69.6161 34.264C66.6401 36.632 63.3281 37.816 59.6801 37.816C55.5521 37.816 52.3841 36.6 50.1761 34.168C47.9681 31.736 46.8641 28.472 46.8641 24.376C46.8641 21.784 47.3281 19.464 48.2561 17.416C49.1841 15.336 50.5441 13.704 52.3361 12.52C54.1281 11.304 56.2721 10.696 58.7681 10.696C62.4481 10.696 65.3281 11.848 67.4081 14.152C69.4881 16.456 70.5281 19.656 70.5281 23.752ZM63.0881 21.592C63.0241 17.688 61.6481 15.736 58.9601 15.736C57.6481 15.736 56.6241 16.216 55.8881 17.176C55.1841 18.136 54.7521 19.72 54.5921 21.928H63.0881V21.592Z" fill="#141414"/>
<path d="M88.0511 23.368L96.2591 37H87.6671L83.2511 27.448L78.9311 37H70.6751L78.8831 23.608L71.4911 11.512H79.9871L83.5391 19.672L86.9471 11.512H95.0111L88.0511 23.368Z" fill="#141414"/>
<path d="M128.132 37V22.744H118.148V37H110.276V3.736H118.148V16.6H128.132V3.736H136.004V37H128.132Z" fill="#141414"/>
<path d="M153.141 10.696C157.045 10.696 160.101 11.896 162.309 14.296C164.517 16.664 165.621 19.992 165.621 24.28C165.621 27 165.109 29.384 164.085 31.432C163.093 33.448 161.653 35.016 159.765 36.136C157.909 37.256 155.701 37.816 153.141 37.816C149.269 37.816 146.213 36.632 143.973 34.264C141.765 31.864 140.661 28.52 140.661 24.232C140.661 21.512 141.157 19.144 142.149 17.128C143.173 15.08 144.613 13.496 146.469 12.376C148.357 11.256 150.581 10.696 153.141 10.696ZM153.141 16.264C151.605 16.264 150.453 16.92 149.685 18.232C148.917 19.512 148.533 21.512 148.533 24.232C148.533 27.016 148.901 29.048 149.637 30.328C150.405 31.608 151.573 32.248 153.141 32.248C154.677 32.248 155.829 31.608 156.597 30.328C157.365 29.016 157.749 27 157.749 24.28C157.749 21.496 157.365 19.464 156.597 18.184C155.861 16.904 154.709 16.264 153.141 16.264Z" fill="#141414"/>
<path d="M176.9 37.816C174.692 37.816 172.964 37.192 171.716 35.944C170.5 34.664 169.892 32.856 169.892 30.52V1.38399L177.476 0.567993V30.232C177.476 31.288 177.908 31.816 178.772 31.816C179.22 31.816 179.636 31.736 180.02 31.576L181.508 36.952C180.132 37.528 178.596 37.816 176.9 37.816Z" fill="#141414"/>
<path d="M204.404 29.608C204.404 30.568 204.532 31.272 204.788 31.72C205.076 32.168 205.524 32.504 206.132 32.728L204.548 37.672C202.98 37.544 201.7 37.208 200.708 36.664C199.716 36.088 198.948 35.192 198.404 33.976C196.74 36.536 194.18 37.816 190.724 37.816C188.196 37.816 186.18 37.08 184.676 35.608C183.172 34.136 182.42 32.216 182.42 29.848C182.42 27.064 183.444 24.936 185.492 23.464C187.54 21.992 190.5 21.256 194.372 21.256H196.964V20.152C196.964 18.648 196.644 17.624 196.004 17.08C195.364 16.504 194.244 16.216 192.644 16.216C191.812 16.216 190.804 16.344 189.62 16.6C188.436 16.824 187.22 17.144 185.972 17.56L184.244 12.568C185.844 11.96 187.476 11.496 189.14 11.176C190.836 10.856 192.404 10.696 193.844 10.696C197.492 10.696 200.164 11.448 201.86 12.952C203.556 14.456 204.404 16.712 204.404 19.72V29.608ZM192.932 32.392C194.66 32.392 196.004 31.576 196.964 29.944V25.432H195.092C193.364 25.432 192.068 25.736 191.204 26.344C190.372 26.952 189.956 27.896 189.956 29.176C189.956 30.2 190.212 31 190.724 31.576C191.268 32.12 192.004 32.392 192.932 32.392Z" fill="#141414"/>
<path d="M225.373 10.696C227.581 10.696 229.309 11.368 230.557 12.712C231.805 14.056 232.429 15.944 232.429 18.376V37H224.845V19.672C224.845 18.392 224.637 17.512 224.221 17.032C223.837 16.52 223.245 16.264 222.445 16.264C220.909 16.264 219.437 17.368 218.029 19.576V37H210.445V11.512H217.069L217.597 14.536C218.685 13.256 219.853 12.296 221.101 11.656C222.381 11.016 223.805 10.696 225.373 10.696Z" fill="#141414"/>
<path d="M260.996 1.38399V37H254.276L253.892 34.024C252.1 36.552 249.684 37.816 246.644 37.816C243.476 37.816 241.06 36.6 239.396 34.168C237.764 31.736 236.948 28.408 236.948 24.184C236.948 21.592 237.38 19.272 238.244 17.224C239.108 15.176 240.324 13.576 241.892 12.424C243.492 11.272 245.316 10.696 247.364 10.696C249.796 10.696 251.812 11.496 253.412 13.096V0.567993L260.996 1.38399ZM248.996 32.248C250.756 32.248 252.228 31.288 253.412 29.368V18.376C252.804 17.64 252.18 17.096 251.54 16.744C250.932 16.392 250.228 16.216 249.428 16.216C248.02 16.216 246.9 16.872 246.068 18.184C245.236 19.496 244.82 21.512 244.82 24.232C244.82 27.208 245.172 29.288 245.876 30.472C246.612 31.656 247.652 32.248 248.996 32.248Z" fill="#141414"/>
<path d="M287.185 29.608C287.185 30.568 287.313 31.272 287.569 31.72C287.857 32.168 288.305 32.504 288.913 32.728L287.329 37.672C285.761 37.544 284.481 37.208 283.489 36.664C282.497 36.088 281.729 35.192 281.185 33.976C279.521 36.536 276.961 37.816 273.505 37.816C270.977 37.816 268.961 37.08 267.457 35.608C265.953 34.136 265.201 32.216 265.201 29.848C265.201 27.064 266.225 24.936 268.273 23.464C270.321 21.992 273.281 21.256 277.153 21.256H279.745V20.152C279.745 18.648 279.425 17.624 278.785 17.08C278.145 16.504 277.025 16.216 275.425 16.216C274.593 16.216 273.585 16.344 272.401 16.6C271.217 16.824 270.001 17.144 268.753 17.56L267.025 12.568C268.625 11.96 270.257 11.496 271.921 11.176C273.617 10.856 275.185 10.696 276.625 10.696C280.273 10.696 282.945 11.448 284.641 12.952C286.337 14.456 287.185 16.712 287.185 19.72V29.608ZM275.713 32.392C277.441 32.392 278.785 31.576 279.745 29.944V25.432H277.873C276.145 25.432 274.849 25.736 273.985 26.344C273.153 26.952 272.737 27.896 272.737 29.176C272.737 30.2 272.993 31 273.505 31.576C274.049 32.12 274.785 32.392 275.713 32.392Z" fill="#141414"/>
<path d="M21.64 37L19.912 29.848H10.216L8.53598 37H0.375977L10.408 3.736H19.96L29.992 37H21.64ZM11.56 24.136H18.568L15.064 9.448L11.56 24.136Z" fill="#141414"/>
<path d="M39.0565 37.816C36.8485 37.816 35.1205 37.192 33.8725 35.944C32.6565 34.664 32.0485 32.856 32.0485 30.52V1.38399L39.6325 0.567993V30.232C39.6325 31.288 40.0645 31.816 40.9285 31.816C41.3765 31.816 41.7925 31.736 42.1765 31.576L43.6645 36.952C42.2885 37.528 40.7525 37.816 39.0565 37.816Z" fill="#141414"/>
<path d="M68.5281 23.752C68.5281 24.808 68.4801 25.72 68.3841 26.488H52.5921C52.8481 28.632 53.4561 30.136 54.4161 31C55.3761 31.864 56.7041 32.296 58.4001 32.296C59.4241 32.296 60.4161 32.12 61.3761 31.768C62.3361 31.384 63.3761 30.808 64.4961 30.04L67.6161 34.264C64.6401 36.632 61.3281 37.816 57.6801 37.816C53.5521 37.816 50.3841 36.6 48.1761 34.168C45.9681 31.736 44.8641 28.472 44.8641 24.376C44.8641 21.784 45.3281 19.464 46.2561 17.416C47.1841 15.336 48.5441 13.704 50.3361 12.52C52.1281 11.304 54.2721 10.696 56.7681 10.696C60.4481 10.696 63.3281 11.848 65.4081 14.152C67.4881 16.456 68.5281 19.656 68.5281 23.752ZM61.0881 21.592C61.0241 17.688 59.6481 15.736 56.9601 15.736C55.6481 15.736 54.6241 16.216 53.8881 17.176C53.1841 18.136 52.7521 19.72 52.5921 21.928H61.0881V21.592Z" fill="#141414"/>
<path d="M86.0511 23.368L94.2591 37H85.6671L81.2511 27.448L76.9311 37H68.6751L76.8831 23.608L69.4911 11.512H77.9871L81.5391 19.672L84.9471 11.512H93.0111L86.0511 23.368Z" fill="#141414"/>
<path d="M126.132 37V22.744H116.148V37H108.276V3.736H116.148V16.6H126.132V3.736H134.004V37H126.132Z" fill="#141414"/>
<path d="M151.141 10.696C155.045 10.696 158.101 11.896 160.309 14.296C162.517 16.664 163.621 19.992 163.621 24.28C163.621 27 163.109 29.384 162.085 31.432C161.093 33.448 159.653 35.016 157.765 36.136C155.909 37.256 153.701 37.816 151.141 37.816C147.269 37.816 144.213 36.632 141.973 34.264C139.765 31.864 138.661 28.52 138.661 24.232C138.661 21.512 139.157 19.144 140.149 17.128C141.173 15.08 142.613 13.496 144.469 12.376C146.357 11.256 148.581 10.696 151.141 10.696ZM151.141 16.264C149.605 16.264 148.453 16.92 147.685 18.232C146.917 19.512 146.533 21.512 146.533 24.232C146.533 27.016 146.901 29.048 147.637 30.328C148.405 31.608 149.573 32.248 151.141 32.248C152.677 32.248 153.829 31.608 154.597 30.328C155.365 29.016 155.749 27 155.749 24.28C155.749 21.496 155.365 19.464 154.597 18.184C153.861 16.904 152.709 16.264 151.141 16.264Z" fill="#141414"/>
<path d="M174.9 37.816C172.692 37.816 170.964 37.192 169.716 35.944C168.5 34.664 167.892 32.856 167.892 30.52V1.38399L175.476 0.567993V30.232C175.476 31.288 175.908 31.816 176.772 31.816C177.22 31.816 177.636 31.736 178.02 31.576L179.508 36.952C178.132 37.528 176.596 37.816 174.9 37.816Z" fill="#141414"/>
<path d="M202.404 29.608C202.404 30.568 202.532 31.272 202.788 31.72C203.076 32.168 203.524 32.504 204.132 32.728L202.548 37.672C200.98 37.544 199.7 37.208 198.708 36.664C197.716 36.088 196.948 35.192 196.404 33.976C194.74 36.536 192.18 37.816 188.724 37.816C186.196 37.816 184.18 37.08 182.676 35.608C181.172 34.136 180.42 32.216 180.42 29.848C180.42 27.064 181.444 24.936 183.492 23.464C185.54 21.992 188.5 21.256 192.372 21.256H194.964V20.152C194.964 18.648 194.644 17.624 194.004 17.08C193.364 16.504 192.244 16.216 190.644 16.216C189.812 16.216 188.804 16.344 187.62 16.6C186.436 16.824 185.22 17.144 183.972 17.56L182.244 12.568C183.844 11.96 185.476 11.496 187.14 11.176C188.836 10.856 190.404 10.696 191.844 10.696C195.492 10.696 198.164 11.448 199.86 12.952C201.556 14.456 202.404 16.712 202.404 19.72V29.608ZM190.932 32.392C192.66 32.392 194.004 31.576 194.964 29.944V25.432H193.092C191.364 25.432 190.068 25.736 189.204 26.344C188.372 26.952 187.956 27.896 187.956 29.176C187.956 30.2 188.212 31 188.724 31.576C189.268 32.12 190.004 32.392 190.932 32.392Z" fill="#141414"/>
<path d="M223.373 10.696C225.581 10.696 227.309 11.368 228.557 12.712C229.805 14.056 230.429 15.944 230.429 18.376V37H222.845V19.672C222.845 18.392 222.637 17.512 222.221 17.032C221.837 16.52 221.245 16.264 220.445 16.264C218.909 16.264 217.437 17.368 216.029 19.576V37H208.445V11.512H215.069L215.597 14.536C216.685 13.256 217.853 12.296 219.101 11.656C220.381 11.016 221.805 10.696 223.373 10.696Z" fill="#141414"/>
<path d="M258.996 1.38399V37H252.276L251.892 34.024C250.1 36.552 247.684 37.816 244.644 37.816C241.476 37.816 239.06 36.6 237.396 34.168C235.764 31.736 234.948 28.408 234.948 24.184C234.948 21.592 235.38 19.272 236.244 17.224C237.108 15.176 238.324 13.576 239.892 12.424C241.492 11.272 243.316 10.696 245.364 10.696C247.796 10.696 249.812 11.496 251.412 13.096V0.567993L258.996 1.38399ZM246.996 32.248C248.756 32.248 250.228 31.288 251.412 29.368V18.376C250.804 17.64 250.18 17.096 249.54 16.744C248.932 16.392 248.228 16.216 247.428 16.216C246.02 16.216 244.9 16.872 244.068 18.184C243.236 19.496 242.82 21.512 242.82 24.232C242.82 27.208 243.172 29.288 243.876 30.472C244.612 31.656 245.652 32.248 246.996 32.248Z" fill="#141414"/>
<path d="M285.185 29.608C285.185 30.568 285.313 31.272 285.569 31.72C285.857 32.168 286.305 32.504 286.913 32.728L285.329 37.672C283.761 37.544 282.481 37.208 281.489 36.664C280.497 36.088 279.729 35.192 279.185 33.976C277.521 36.536 274.961 37.816 271.505 37.816C268.977 37.816 266.961 37.08 265.457 35.608C263.953 34.136 263.201 32.216 263.201 29.848C263.201 27.064 264.225 24.936 266.273 23.464C268.321 21.992 271.281 21.256 275.153 21.256H277.745V20.152C277.745 18.648 277.425 17.624 276.785 17.08C276.145 16.504 275.025 16.216 273.425 16.216C272.593 16.216 271.585 16.344 270.401 16.6C269.217 16.824 268.001 17.144 266.753 17.56L265.025 12.568C266.625 11.96 268.257 11.496 269.921 11.176C271.617 10.856 273.185 10.696 274.625 10.696C278.273 10.696 280.945 11.448 282.641 12.952C284.337 14.456 285.185 16.712 285.185 19.72V29.608ZM273.713 32.392C275.441 32.392 276.785 31.576 277.745 29.944V25.432H275.873C274.145 25.432 272.849 25.736 271.985 26.344C271.153 26.952 270.737 27.896 270.737 29.176C270.737 30.2 270.993 31 271.505 31.576C272.049 32.12 272.785 32.392 273.713 32.392Z" fill="#141414"/>
</svg>
